<svg xmlns:xlink="http://www.w3.org/1999/xlink" xmlns="http://www.w3.org/2000/svg" viewBox="0 0 500 500" width="500" height="500" preserveAspectRatio="xMidYMid meet" style="width: 100%; height: 100%; transform: translate3d(0px, 0px, 0px);"><defs><clipPath id="__lottie_element_2"><rect width="500" height="500" x="0" y="0"></rect></clipPath><clipPath id="__lottie_element_13"><path fill="#ffffff" clip-rule="nonzero" d=" M216,-115 C216,-115 136,115 136,115 C136,115 184,115 184,115 C184,115 264,-115 264,-115 C264,-115 216,-115 216,-115" fill-opacity="1"></path></clipPath></defs><g clip-path="url(#__lottie_element_2)"><g style="display: none;" transform="matrix(-0.2619529366493225,0.7583940625190735,-0.7583940625190735,-0.2619529366493225,588.8697509765625,212.30218505859375)" opacity="1"><g opacity="1" transform="matrix(1,0,0,1,249.9949951171875,372)"><path stroke-linecap="round" stroke-linejoin="round" fill-opacity="0" stroke="#455A63" stroke-opacity="1" stroke-width="64.642px" d=" M-103.16600036621094,92.29199981689453 C-103.16600036621094,92.29199981689453 -103.16600036621094,-6.1519999504089355 -103.16600036621094,-6.1519999504089355 C-103.16799926757812,-53.72700119018555 -56.97800064086914,-92.29199981689453 0,-92.29199981689453 C56.97700119018555,-92.29199981689453 103.16799926757812,-53.72700119018555 103.16799926757812,-6.1519999504089355 C103.16799926757812,-6.1519999504089355 103.16799926757812,1.7649999856948853 103.16799926757812,13.107999801635742"></path></g></g><g transform="matrix(1.2599999904632568,0,0,1.2599999904632568,250,250)" opacity="1" style="display: block;"><path fill="#19C670" fill-opacity="1" d=" M140,0 C140,0 140,0 140,0 C140,77.26599884033203 77.26599884033203,140 0,140 C0,140 0,140 0,140 C-77.26599884033203,140 -140,77.26599884033203 -140,0 C-140,0 -140,0 -140,0 C-140,-77.26599884033203 -77.26599884033203,-140 0,-140 C0,-140 0,-140 0,-140 C77.26599884033203,-140 140,-77.26599884033203 140,0z"></path></g><g style="display: block;" transform="matrix(1.659999966621399,0,0,1.659999966621399,250,250)" opacity="1"><path stroke-linecap="round" stroke-linejoin="round" fill-opacity="0" stroke-dasharray=" 0 110" stroke-dashoffset="0" stroke="#19C670" stroke-opacity="1" stroke-width="0px" d=" M140,0 C140,0 140,0 140,0 C140,77.26599884033203 77.26599884033203,140 0,140 C0,140 0,140 0,140 C-77.26599884033203,140 -140,77.26599884033203 -140,0 C-140,0 -140,0 -140,0 C-140,-77.26599884033203 -77.26599884033203,-140 0,-140 C0,-140 0,-140 0,-140 C77.26599884033203,-140 140,-77.26599884033203 140,0z"></path></g><g clip-path="url(#__lottie_element_13)" style="display: none;" transform="matrix(1,0,0,1,250,331.20001220703125)" opacity="1"><path fill="#FFD65B" fill-opacity="1" d=" M140,-79 C140,-79 140,79 140,79 C140,98.86840057373047 123.86840057373047,115 104,115 C104,115 -104,115 -104,115 C-123.86840057373047,115 -140,98.86840057373047 -140,79 C-140,79 -140,-79 -140,-79 C-140,-98.86840057373047 -123.86840057373047,-115 -104,-115 C-104,-115 104,-115 104,-115 C123.86840057373047,-115 140,-98.86840057373047 140,-79z"></path></g><g style="display: block;" transform="matrix(0.4000000059604645,0,0,0.4000000059604645,150,152.0800018310547)" opacity="1"><g opacity="1" transform="matrix(1,0,0,1,250,244.8000030517578)"><path stroke-linecap="round" stroke-linejoin="round" fill-opacity="0" stroke="#FFFFFF" stroke-opacity="1" stroke-width="90px" d=" M221.88900756835938,-160.28199768066406 C221.88900756835938,-160.28199768066406 -98.6719970703125,160.28199768066406 -98.6719970703125,160.28199768066406 C-98.6719970703125,160.28199768066406 -221.88900756835938,37.0629997253418 -221.88900756835938,37.0629997253418"></path></g></g><g transform="matrix(0,0,0,0,408.0002136230469,108.00052642822266)" opacity="1" style="display: block;"><g opacity="1" transform="matrix(1,0,0,1,249.7030029296875,320)"><path fill="#455A63" fill-opacity="1" d=" M-22.808000564575195,-35.08100128173828 C-22.808000564575195,-35.08100128173828 -30.850000381469727,23.16900062561035 -30.850000381469727,23.16900062561035 C-31.6560001373291,28.864999771118164 -27.69099998474121,34.13600158691406 -21.9950008392334,34.941001892089844 C-21.511999130249023,35.0099983215332 -21.024999618530273,35.04399871826172 -20.53700065612793,35.04399871826172 C-20.53700065612793,35.04399871826172 21.1299991607666,35.04399871826172 21.1299991607666,35.04399871826172 C26.881999969482422,35.10300064086914 31.593000411987305,30.486000061035156 31.650999069213867,24.732999801635742 C31.6560001373291,24.202999114990234 31.621999740600586,23.67300033569336 31.54599952697754,23.148000717163086 C31.54599952697754,23.148000717163086 23.503999710083008,-35.10200119018555 23.503999710083008,-35.10200119018555 C23.503999710083008,-35.10200119018555 -22.808000564575195,-35.08100128173828 -22.808000564575195,-35.08100128173828z"></path></g><g opacity="1" transform="matrix(1,0,0,1,250,321.6969909667969)"><path fill="#FFFFFF" fill-opacity="1" d=" M52.08300018310547,0 C52.08300018310547,28.764999389648438 28.764999389648438,52.08300018310547 0,52.08300018310547 C-28.764999389648438,52.08300018310547 -52.08300018310547,28.764999389648438 -52.08300018310547,0 C-52.08300018310547,-28.764999389648438 -28.764999389648438,-52.08300018310547 0,-52.08300018310547 C28.764999389648438,-52.08300018310547 52.08300018310547,-28.764999389648438 52.08300018310547,0z"></path></g></g></g></svg>